<?xml version="1.0" standalone="no"?>
<!DOCTYPE svg PUBLIC "-//W3C//DTD SVG 20010904//EN"
 "http://www.w3.org/TR/2001/REC-SVG-20010904/DTD/svg10.dtd">
<svg version="1.0" xmlns="http://www.w3.org/2000/svg"
 width="536.000000pt" height="536.000000pt" viewBox="0 0 536.000000 536.000000"
 preserveAspectRatio="xMidYMid meet">
<metadata>
Created by potrace 1.11, written by Peter Selinger 2001-2013
</metadata>
<g transform="translate(0.000000,536.000000) scale(0.100000,-0.100000)"
fill="#000000" stroke="none">
<path d="M75 5270 c5 -9 7 -66 5 -210 -1 -19 -1 -75 -1 -125 1 -49 1 -103 0
-120 0 -16 0 -68 0 -115 1 -47 1 -101 1 -120 -1 -19 -1 -75 -1 -125 1 -49 1
-103 0 -120 0 -16 0 -68 0 -115 1 -47 1 -101 1 -120 -1 -19 -1 -75 -1 -125 1
-49 1 -103 0 -120 0 -16 0 -68 0 -115 1 -47 1 -101 1 -120 -1 -19 -1 -75 -1
-125 1 -49 1 -103 0 -120 0 -16 0 -68 0 -115 1 -47 1 -101 1 -120 -1 -19 -1
-75 -1 -125 1 -49 1 -103 0 -120 0 -16 0 -68 0 -115 1 -47 1 -101 1 -120 -1
-19 -1 -75 -1 -125 1 -49 1 -103 0 -120 0 -16 0 -68 0 -115 1 -47 1 -101 1
-120 -1 -19 -1 -75 -1 -125 1 -49 1 -103 0 -120 0 -16 0 -68 0 -115 1 -47 1
-101 1 -120 -1 -19 -1 -75 -1 -125 1 -49 1 -103 0 -120 0 -16 0 -68 0 -115 1
-47 1 -101 1 -120 -1 -19 -1 -75 -1 -125 1 -49 1 -103 0 -120 0 -16 0 -68 0
-115 1 -47 1 -101 1 -120 -1 -19 -1 -75 -1 -125 1 -49 1 -103 0 -120 0 -16 0
-68 0 -115 1 -47 1 -101 1 -120 -1 -19 0 -68 1 -107 l1 -73 2601 0 c1430 0
2598 2 2595 6 -3 3 -2 21 2 40 4 19 4 36 -1 39 -4 3 -6 11 -3 19 7 17 10 146
4 146 -3 0 -4 24 -2 52 2 29 3 60 3 68 -2 90 1 185 5 191 3 5 2 9 -3 9 -4 0
-7 24 -5 52 2 29 3 60 3 68 -2 90 1 185 5 191 3 5 2 9 -3 9 -4 0 -7 24 -5 52
2 29 3 60 3 68 -2 90 1 185 5 191 3 5 2 9 -3 9 -4 0 -7 24 -5 52 2 29 3 60 3
68 -2 90 1 185 5 191 3 5 2 9 -3 9 -4 0 -7 24 -5 52 2 29 3 60 3 68 -2 90 1
185 5 191 3 5 2 9 -3 9 -4 0 -7 24 -5 52 2 29 3 60 3 68 -2 90 1 185 5 191 3
5 2 9 -3 9 -4 0 -7 24 -5 52 2 29 3 60 3 68 -2 90 1 185 5 191 3 5 2 9 -3 9
-4 0 -7 24 -5 52 2 29 3 60 3 68 -2 90 1 185 5 191 3 5 2 9 -3 9 -4 0 -7 24
-5 52 2 29 3 60 3 68 -2 90 1 185 5 191 3 5 2 9 -3 9 -4 0 -7 24 -5 52 2 29 3
60 3 68 -2 90 1 185 5 191 3 5 2 9 -3 9 -4 0 -7 24 -5 52 2 29 3 60 3 68 -2
90 1 185 5 191 3 5 2 9 -3 9 -4 0 -7 24 -5 52 2 29 3 60 3 68 -2 90 1 185 5
191 3 5 2 9 -3 9 -4 0 -7 24 -5 52 2 29 3 60 3 68 -2 90 1 185 5 191 3 5 2 9
-3 9 -4 0 -7 24 -5 52 2 29 3 60 3 68 -2 90 1 185 5 191 3 5 2 9 -3 9 -4 0 -7
24 -5 52 2 29 3 60 3 68 -2 90 1 185 5 191 3 5 1 9 -4 9 -5 0 -7 17 -3 38 3
20 5 54 3 75 l-3 37 -2605 0 c-1746 0 -2603 -3 -2599 -10z"/>
</g>
</svg>
