<svg width="268" height="260" viewBox="0 0 268 260" fill="none" xmlns="http://www.w3.org/2000/svg">
<rect x="4" width="260" height="260" fill="black"/>
<path d="M52.0312 137.125H32.9688L28.6875 149H22.5L39.875 103.5H45.125L62.5312 149H56.375L52.0312 137.125ZM34.7812 132.188H50.25L42.5 110.906L34.7812 132.188ZM84.0938 120.375C83.2188 120.229 82.2708 120.156 81.25 120.156C77.4583 120.156 74.8854 121.771 73.5312 125V149H67.75V115.188H73.375L73.4688 119.094C75.3646 116.073 78.0521 114.562 81.5312 114.562C82.6562 114.562 83.5104 114.708 84.0938 115V120.375ZM98.8438 107V115.188H105.156V119.656H98.8438V140.625C98.8438 141.979 99.125 143 99.6875 143.688C100.25 144.354 101.208 144.688 102.562 144.688C103.229 144.688 104.146 144.562 105.312 144.312V149C103.792 149.417 102.312 149.625 100.875 149.625C98.2917 149.625 96.3438 148.844 95.0312 147.281C93.7188 145.719 93.0625 143.5 93.0625 140.625V119.656H86.9062V115.188H93.0625V107H98.8438ZM137.938 128.906H118.844V149H112.844V103.5H141.031V108.438H118.844V124H137.938V128.906ZM145.094 131.781C145.094 128.469 145.74 125.49 147.031 122.844C148.344 120.198 150.156 118.156 152.469 116.719C154.802 115.281 157.458 114.562 160.438 114.562C165.042 114.562 168.76 116.156 171.594 119.344C174.448 122.531 175.875 126.771 175.875 132.062V132.469C175.875 135.76 175.24 138.719 173.969 141.344C172.719 143.948 170.917 145.979 168.562 147.438C166.229 148.896 163.542 149.625 160.5 149.625C155.917 149.625 152.198 148.031 149.344 144.844C146.51 141.656 145.094 137.438 145.094 132.188V131.781ZM150.906 132.469C150.906 136.219 151.771 139.229 153.5 141.5C155.25 143.771 157.583 144.906 160.5 144.906C163.438 144.906 165.771 143.76 167.5 141.469C169.229 139.156 170.094 135.927 170.094 131.781C170.094 128.073 169.208 125.073 167.438 122.781C165.688 120.469 163.354 119.312 160.438 119.312C157.583 119.312 155.281 120.448 153.531 122.719C151.781 124.99 150.906 128.24 150.906 132.469ZM189.406 149H183.625V101H189.406V149ZM204.969 149H199.188V115.188H204.969V149ZM198.719 106.219C198.719 105.281 199 104.49 199.562 103.844C200.146 103.198 201 102.875 202.125 102.875C203.25 102.875 204.104 103.198 204.688 103.844C205.271 104.49 205.562 105.281 205.562 106.219C205.562 107.156 205.271 107.938 204.688 108.562C204.104 109.188 203.25 109.5 202.125 109.5C201 109.5 200.146 109.188 199.562 108.562C199 107.938 198.719 107.156 198.719 106.219ZM212.719 131.781C212.719 128.469 213.365 125.49 214.656 122.844C215.969 120.198 217.781 118.156 220.094 116.719C222.427 115.281 225.083 114.562 228.062 114.562C232.667 114.562 236.385 116.156 239.219 119.344C242.073 122.531 243.5 126.771 243.5 132.062V132.469C243.5 135.76 242.865 138.719 241.594 141.344C240.344 143.948 238.542 145.979 236.188 147.438C233.854 148.896 231.167 149.625 228.125 149.625C223.542 149.625 219.823 148.031 216.969 144.844C214.135 141.656 212.719 137.438 212.719 132.188V131.781ZM218.531 132.469C218.531 136.219 219.396 139.229 221.125 141.5C222.875 143.771 225.208 144.906 228.125 144.906C231.062 144.906 233.396 143.76 235.125 141.469C236.854 139.156 237.719 135.927 237.719 131.781C237.719 128.073 236.833 125.073 235.062 122.781C233.312 120.469 230.979 119.312 228.062 119.312C225.208 119.312 222.906 120.448 221.156 122.719C219.406 124.99 218.531 128.24 218.531 132.469Z" fill="#FFFCFC"/>
</svg>
