<svg width="247" height="69" viewBox="0 0 247 69" fill="none" xmlns="http://www.w3.org/2000/svg">
<path d="M0 0H247V69H0V0Z" fill="black"/>
<g filter="url(#filter0_b)">
<path d="M61.7234 41.0938H47.4266L44.2156 50H39.575L52.6062 15.875H56.5437L69.5984 50H64.9812L61.7234 41.0938ZM48.7859 37.3906H60.3875L54.575 21.4297L48.7859 37.3906ZM85.7703 28.5312C85.1141 28.4219 84.4031 28.3672 83.6375 28.3672C80.7937 28.3672 78.8641 29.5781 77.8484 32V50H73.5125V24.6406H77.7312L77.8016 27.5703C79.2234 25.3047 81.2391 24.1719 83.8484 24.1719C84.6922 24.1719 85.3328 24.2812 85.7703 24.5V28.5312ZM96.8328 18.5V24.6406H101.567V27.9922H96.8328V43.7188C96.8328 44.7344 97.0437 45.5 97.4656 46.0156C97.8875 46.5156 98.6062 46.7656 99.6219 46.7656C100.122 46.7656 100.809 46.6719 101.684 46.4844V50C100.544 50.3125 99.4344 50.4688 98.3562 50.4688C96.4187 50.4688 94.9578 49.8828 93.9734 48.7109C92.9891 47.5391 92.4969 45.875 92.4969 43.7188V27.9922H87.8797V24.6406H92.4969V18.5H96.8328ZM126.153 34.9297H111.833V50H107.333V15.875H128.473V19.5781H111.833V31.25H126.153V34.9297ZM131.52 37.0859C131.52 34.6016 132.005 32.3672 132.973 30.3828C133.958 28.3984 135.317 26.8672 137.052 25.7891C138.802 24.7109 140.794 24.1719 143.028 24.1719C146.481 24.1719 149.27 25.3672 151.395 27.7578C153.536 30.1484 154.606 33.3281 154.606 37.2969V37.6016C154.606 40.0703 154.13 42.2891 153.177 44.2578C152.239 46.2109 150.887 47.7344 149.122 48.8281C147.372 49.9219 145.356 50.4688 143.075 50.4688C139.637 50.4688 136.848 49.2734 134.708 46.8828C132.583 44.4922 131.52 41.3281 131.52 37.3906V37.0859ZM135.88 37.6016C135.88 40.4141 136.528 42.6719 137.825 44.375C139.137 46.0781 140.887 46.9297 143.075 46.9297C145.278 46.9297 147.028 46.0703 148.325 44.3516C149.622 42.6172 150.27 40.1953 150.27 37.0859C150.27 34.3047 149.606 32.0547 148.278 30.3359C146.966 28.6016 145.216 27.7344 143.028 27.7344C140.887 27.7344 139.161 28.5859 137.848 30.2891C136.536 31.9922 135.88 34.4297 135.88 37.6016ZM164.755 50H160.419V14H164.755V50ZM176.427 50H172.091V24.6406H176.427V50ZM171.739 17.9141C171.739 17.2109 171.95 16.6172 172.372 16.1328C172.809 15.6484 173.45 15.4062 174.294 15.4062C175.137 15.4062 175.778 15.6484 176.216 16.1328C176.653 16.6172 176.872 17.2109 176.872 17.9141C176.872 18.6172 176.653 19.2031 176.216 19.6719C175.778 20.1406 175.137 20.375 174.294 20.375C173.45 20.375 172.809 20.1406 172.372 19.6719C171.95 19.2031 171.739 18.6172 171.739 17.9141ZM182.239 37.0859C182.239 34.6016 182.723 32.3672 183.692 30.3828C184.677 28.3984 186.036 26.8672 187.77 25.7891C189.52 24.7109 191.512 24.1719 193.747 24.1719C197.2 24.1719 199.989 25.3672 202.114 27.7578C204.255 30.1484 205.325 33.3281 205.325 37.2969V37.6016C205.325 40.0703 204.848 42.2891 203.895 44.2578C202.958 46.2109 201.606 47.7344 199.841 48.8281C198.091 49.9219 196.075 50.4688 193.794 50.4688C190.356 50.4688 187.567 49.2734 185.427 46.8828C183.302 44.4922 182.239 41.3281 182.239 37.3906V37.0859ZM186.598 37.6016C186.598 40.4141 187.247 42.6719 188.544 44.375C189.856 46.0781 191.606 46.9297 193.794 46.9297C195.997 46.9297 197.747 46.0703 199.044 44.3516C200.341 42.6172 200.989 40.1953 200.989 37.0859C200.989 34.3047 200.325 32.0547 198.997 30.3359C197.684 28.6016 195.934 27.7344 193.747 27.7344C191.606 27.7344 189.88 28.5859 188.567 30.2891C187.255 31.9922 186.598 34.4297 186.598 37.6016Z" fill="#FFFCFC"/>
<path d="M61.7234 41.0938L62.6626 40.7502L62.4224 40.0938H61.7234V41.0938ZM47.4266 41.0938V40.0938H46.7241L46.4858 40.7546L47.4266 41.0938ZM44.2156 50V51H44.9181L45.1564 50.3392L44.2156 50ZM39.575 50L38.6408 49.6433L38.1227 51H39.575V50ZM52.6062 15.875V14.875H51.9177L51.672 15.5183L52.6062 15.875ZM56.5437 15.875L57.4777 15.5177L57.2319 14.875H56.5437V15.875ZM69.5984 50V51H71.0517L70.5324 49.6427L69.5984 50ZM64.9812 50L64.0421 50.3435L64.2822 51H64.9812V50ZM48.7859 37.3906L47.8459 37.0497L47.3595 38.3906H48.7859V37.3906ZM60.3875 37.3906V38.3906H61.8159L61.3271 37.0484L60.3875 37.3906ZM54.575 21.4297L55.5146 21.0875L54.5731 18.5021L53.6349 21.0887L54.575 21.4297ZM61.7234 40.0938H47.4266V42.0938H61.7234V40.0938ZM46.4858 40.7546L43.2749 49.6608L45.1564 50.3392L48.3673 41.4329L46.4858 40.7546ZM44.2156 49H39.575V51H44.2156V49ZM40.5092 50.3567L53.5404 16.2317L51.672 15.5183L38.6408 49.6433L40.5092 50.3567ZM52.6062 16.875H56.5437V14.875H52.6062V16.875ZM55.6098 16.2323L68.6644 50.3573L70.5324 49.6427L57.4777 15.5177L55.6098 16.2323ZM69.5984 49H64.9812V51H69.5984V49ZM65.9204 49.6565L62.6626 40.7502L60.7843 41.4373L64.0421 50.3435L65.9204 49.6565ZM48.7859 38.3906H60.3875V36.3906H48.7859V38.3906ZM61.3271 37.0484L55.5146 21.0875L53.6354 21.7719L59.4479 37.7328L61.3271 37.0484ZM53.6349 21.0887L47.8459 37.0497L49.726 37.7316L55.5151 21.7707L53.6349 21.0887ZM85.7703 28.5312L85.6059 29.5176L86.7703 29.7117V28.5312H85.7703ZM77.8484 32L76.9262 31.6133L76.8484 31.7988V32H77.8484ZM77.8484 50V51H78.8484V50H77.8484ZM73.5125 50H72.5125V51H73.5125V50ZM73.5125 24.6406V23.6406H72.5125V24.6406H73.5125ZM77.7312 24.6406L78.731 24.6166L78.7075 23.6406H77.7312V24.6406ZM77.8016 27.5703L76.8018 27.5943L76.8816 30.9174L78.6486 28.1019L77.8016 27.5703ZM85.7703 24.5H86.7703V23.882L86.2175 23.6056L85.7703 24.5ZM85.9347 27.5449C85.2167 27.4252 84.4502 27.3672 83.6375 27.3672V29.3672C84.3561 29.3672 85.0114 29.4186 85.6059 29.5176L85.9347 27.5449ZM83.6375 27.3672C82.0741 27.3672 80.6853 27.7008 79.5259 28.4284C78.3608 29.1595 77.5012 30.2423 76.9262 31.6133L78.7706 32.3867C79.2113 31.3358 79.8243 30.6023 80.589 30.1224C81.3593 29.639 82.3572 29.3672 83.6375 29.3672V27.3672ZM76.8484 32V50H78.8484V32H76.8484ZM77.8484 49H73.5125V51H77.8484V49ZM74.5125 50V24.6406H72.5125V50H74.5125ZM73.5125 25.6406H77.7312V23.6406H73.5125V25.6406ZM76.7315 24.6646L76.8018 27.5943L78.8013 27.5463L78.731 24.6166L76.7315 24.6646ZM78.6486 28.1019C79.8931 26.1188 81.5936 25.1719 83.8484 25.1719V23.1719C80.8846 23.1719 78.5538 24.4905 76.9545 27.0387L78.6486 28.1019ZM83.8484 25.1719C84.6342 25.1719 85.0911 25.2784 85.3231 25.3944L86.2175 23.6056C85.5746 23.2841 84.7501 23.1719 83.8484 23.1719V25.1719ZM84.7703 24.5V28.5312H86.7703V24.5H84.7703ZM96.8328 18.5H97.8328V17.5H96.8328V18.5ZM96.8328 24.6406H95.8328V25.6406H96.8328V24.6406ZM101.567 24.6406H102.567V23.6406H101.567V24.6406ZM101.567 27.9922V28.9922H102.567V27.9922H101.567ZM96.8328 27.9922V26.9922H95.8328V27.9922H96.8328ZM97.4656 46.0156L96.6917 46.6489L96.6965 46.6547L96.7013 46.6605L97.4656 46.0156ZM101.684 46.4844H102.684V45.2474L101.475 45.5066L101.684 46.4844ZM101.684 50L101.949 50.9645L102.684 50.7629V50H101.684ZM92.4969 27.9922H93.4969V26.9922H92.4969V27.9922ZM87.8797 27.9922H86.8797V28.9922H87.8797V27.9922ZM87.8797 24.6406V23.6406H86.8797V24.6406H87.8797ZM92.4969 24.6406V25.6406H93.4969V24.6406H92.4969ZM92.4969 18.5V17.5H91.4969V18.5H92.4969ZM95.8328 18.5V24.6406H97.8328V18.5H95.8328ZM96.8328 25.6406H101.567V23.6406H96.8328V25.6406ZM100.567 24.6406V27.9922H102.567V24.6406H100.567ZM101.567 26.9922H96.8328V28.9922H101.567V26.9922ZM95.8328 27.9922V43.7188H97.8328V27.9922H95.8328ZM95.8328 43.7188C95.8328 44.8497 96.0642 45.8819 96.6917 46.6489L98.2396 45.3824C98.0233 45.1181 97.8328 44.6191 97.8328 43.7188H95.8328ZM96.7013 46.6605C97.3978 47.486 98.4746 47.7656 99.6219 47.7656V45.7656C98.7379 45.7656 98.3772 45.5453 98.2299 45.3708L96.7013 46.6605ZM99.6219 47.7656C100.227 47.7656 100.995 47.6548 101.894 47.4622L101.475 45.5066C100.624 45.6889 100.017 45.7656 99.6219 45.7656V47.7656ZM100.684 46.4844V50H102.684V46.4844H100.684ZM101.42 49.0355C100.357 49.3267 99.3369 49.4688 98.3562 49.4688V51.4688C99.5318 51.4688 100.73 51.2983 101.949 50.9645L101.42 49.0355ZM98.3562 49.4688C96.6291 49.4688 95.4849 48.9555 94.7391 48.0677L93.2077 49.3541C94.4307 50.8101 96.2084 51.4688 98.3562 51.4688V49.4688ZM94.7391 48.0677C93.9576 47.1374 93.4969 45.7347 93.4969 43.7188H91.4969C91.4969 46.0153 92.0205 47.9407 93.2077 49.3541L94.7391 48.0677ZM93.4969 43.7188V27.9922H91.4969V43.7188H93.4969ZM92.4969 26.9922H87.8797V28.9922H92.4969V26.9922ZM88.8797 27.9922V24.6406H86.8797V27.9922H88.8797ZM87.8797 25.6406H92.4969V23.6406H87.8797V25.6406ZM93.4969 24.6406V18.5H91.4969V24.6406H93.4969ZM92.4969 19.5H96.8328V17.5H92.4969V19.5ZM126.153 34.9297V35.9297H127.153V34.9297H126.153ZM111.833 34.9297V33.9297H110.833V34.9297H111.833ZM111.833 50V51H112.833V50H111.833ZM107.333 50H106.333V51H107.333V50ZM107.333 15.875V14.875H106.333V15.875H107.333ZM128.473 15.875H129.473V14.875H128.473V15.875ZM128.473 19.5781V20.5781H129.473V19.5781H128.473ZM111.833 19.5781V18.5781H110.833V19.5781H111.833ZM111.833 31.25H110.833V32.25H111.833V31.25ZM126.153 31.25H127.153V30.25H126.153V31.25ZM126.153 33.9297H111.833V35.9297H126.153V33.9297ZM110.833 34.9297V50H112.833V34.9297H110.833ZM111.833 49H107.333V51H111.833V49ZM108.333 50V15.875H106.333V50H108.333ZM107.333 16.875H128.473V14.875H107.333V16.875ZM127.473 15.875V19.5781H129.473V15.875H127.473ZM128.473 18.5781H111.833V20.5781H128.473V18.5781ZM110.833 19.5781V31.25H112.833V19.5781H110.833ZM111.833 32.25H126.153V30.25H111.833V32.25ZM125.153 31.25V34.9297H127.153V31.25H125.153ZM132.973 30.3828L132.078 29.9384L132.075 29.9441L132.973 30.3828ZM137.052 25.7891L136.527 24.9377L136.524 24.9398L137.052 25.7891ZM151.395 27.7578L150.648 28.4222L150.65 28.4249L151.395 27.7578ZM153.177 44.2578L152.276 43.8221L152.275 43.8251L153.177 44.2578ZM149.122 48.8281L148.595 47.978L148.592 47.9801L149.122 48.8281ZM134.708 46.8828L133.96 47.5472L133.963 47.5499L134.708 46.8828ZM137.825 44.375L137.029 44.9808L137.033 44.9854L137.825 44.375ZM148.325 44.3516L149.123 44.9539L149.126 44.9504L148.325 44.3516ZM148.278 30.3359L147.481 30.9394L147.487 30.9474L148.278 30.3359ZM132.52 37.0859C132.52 34.7344 132.978 32.653 133.872 30.8215L132.075 29.9441C131.031 32.0813 130.52 34.4687 130.52 37.0859H132.52ZM133.869 30.8272C134.778 28.9947 136.016 27.61 137.579 26.6383L136.524 24.9398C134.618 26.1243 133.137 27.8021 132.078 29.9384L133.869 30.8272ZM137.576 26.6405C139.155 25.6679 140.962 25.1719 143.028 25.1719V23.1719C140.625 23.1719 138.448 23.754 136.527 24.9377L137.576 26.6405ZM143.028 25.1719C146.221 25.1719 148.729 26.2635 150.648 28.4222L152.143 27.0934C149.812 24.4709 146.741 23.1719 143.028 23.1719V25.1719ZM150.65 28.4249C152.59 30.5914 153.606 33.5135 153.606 37.2969H155.606C155.606 33.1427 154.482 29.7055 152.14 27.0907L150.65 28.4249ZM153.606 37.2969V37.6016H155.606V37.2969H153.606ZM153.606 37.6016C153.606 39.9389 153.156 42.0057 152.276 43.8221L154.077 44.6936C155.104 42.5724 155.606 40.2017 155.606 37.6016H153.606ZM152.275 43.8251C151.416 45.614 150.191 46.9892 148.595 47.978L149.648 49.6782C151.584 48.4795 153.062 46.8079 154.078 44.6905L152.275 43.8251ZM148.592 47.9801C147.017 48.9643 145.189 49.4688 143.075 49.4688V51.4688C145.523 51.4688 147.726 50.8795 149.652 49.6761L148.592 47.9801ZM143.075 49.4688C139.899 49.4688 137.389 48.3781 135.453 46.2157L133.963 47.5499C136.308 50.1688 139.376 51.4688 143.075 51.4688V49.4688ZM135.455 46.2184C133.528 44.0506 132.52 41.1422 132.52 37.3906H130.52C130.52 41.514 131.637 44.9337 133.96 47.5472L135.455 46.2184ZM132.52 37.3906V37.0859H130.52V37.3906H132.52ZM134.88 37.6016C134.88 40.5642 135.564 43.0559 137.029 44.9808L138.621 43.7692C137.493 42.2879 136.88 40.2639 136.88 37.6016H134.88ZM137.033 44.9854C138.539 46.9392 140.584 47.9297 143.075 47.9297V45.9297C141.191 45.9297 139.736 45.2171 138.617 43.7646L137.033 44.9854ZM143.075 47.9297C145.583 47.9297 147.632 46.9298 149.123 44.9539L147.527 43.7492C146.424 45.2108 144.973 45.9297 143.075 45.9297V47.9297ZM149.126 44.9504C150.598 42.9823 151.27 40.3203 151.27 37.0859H149.27C149.27 40.0703 148.646 42.2521 147.524 43.7527L149.126 44.9504ZM151.27 37.0859C151.27 34.1461 150.567 31.6622 149.069 29.7245L147.487 30.9474C148.646 32.4471 149.27 34.4633 149.27 37.0859H151.27ZM149.076 29.7325C147.573 27.7467 145.527 26.7344 143.028 26.7344V28.7344C144.905 28.7344 146.359 29.4565 147.481 30.9394L149.076 29.7325ZM143.028 26.7344C140.576 26.7344 138.557 27.7311 137.056 29.6786L138.641 30.8995C139.765 29.4407 141.199 28.7344 143.028 28.7344V26.7344ZM137.056 29.6786C135.558 31.6225 134.88 34.3096 134.88 37.6016H136.88C136.88 34.5498 137.514 32.3619 138.641 30.8995L137.056 29.6786ZM164.755 50V51H165.755V50H164.755ZM160.419 50H159.419V51H160.419V50ZM160.419 14V13H159.419V14H160.419ZM164.755 14H165.755V13H164.755V14ZM164.755 49H160.419V51H164.755V49ZM161.419 50V14H159.419V50H161.419ZM160.419 15H164.755V13H160.419V15ZM163.755 14V50H165.755V14H163.755ZM176.427 50V51H177.427V50H176.427ZM172.091 50H171.091V51H172.091V50ZM172.091 24.6406V23.6406H171.091V24.6406H172.091ZM176.427 24.6406H177.427V23.6406H176.427V24.6406ZM172.372 16.1328L171.63 15.4625L171.624 15.4692L171.618 15.476L172.372 16.1328ZM172.372 19.6719L171.629 20.3408L171.635 20.3476L171.641 20.3542L172.372 19.6719ZM176.427 49H172.091V51H176.427V49ZM173.091 50V24.6406H171.091V50H173.091ZM172.091 25.6406H176.427V23.6406H172.091V25.6406ZM175.427 24.6406V50H177.427V24.6406H175.427ZM172.739 17.9141C172.739 17.4277 172.878 17.0742 173.126 16.7896L171.618 15.476C171.022 16.1602 170.739 16.9941 170.739 17.9141H172.739ZM173.114 16.8031C173.31 16.586 173.645 16.4062 174.294 16.4062V14.4062C173.255 14.4062 172.309 14.7108 171.63 15.4625L173.114 16.8031ZM174.294 16.4062C174.943 16.4062 175.277 16.586 175.474 16.8031L176.958 15.4625C176.279 14.7108 175.332 14.4062 174.294 14.4062V16.4062ZM175.474 16.8031C175.732 17.0888 175.872 17.4378 175.872 17.9141H177.872C177.872 16.9841 177.575 16.1456 176.958 15.4625L175.474 16.8031ZM175.872 17.9141C175.872 18.3905 175.732 18.7246 175.485 18.9896L176.947 20.3542C177.574 19.6817 177.872 18.8439 177.872 17.9141H175.872ZM175.485 18.9896C175.291 19.1971 174.952 19.375 174.294 19.375V21.375C175.323 21.375 176.265 21.0842 176.947 20.3542L175.485 18.9896ZM174.294 19.375C173.635 19.375 173.297 19.1971 173.103 18.9896L171.641 20.3542C172.322 21.0842 173.265 21.375 174.294 21.375V19.375ZM173.115 19.0029C172.878 18.7393 172.739 18.4007 172.739 17.9141H170.739C170.739 18.8336 171.022 19.6669 171.629 20.3408L173.115 19.0029ZM183.692 30.3828L182.796 29.9384L182.794 29.9441L183.692 30.3828ZM187.77 25.7891L187.246 24.9377L187.242 24.9398L187.77 25.7891ZM202.114 27.7578L201.367 28.4222L201.369 28.4249L202.114 27.7578ZM203.895 44.2578L202.995 43.8221L202.994 43.8251L203.895 44.2578ZM199.841 48.8281L199.314 47.978L199.311 47.9801L199.841 48.8281ZM185.427 46.8828L184.679 47.5472L184.682 47.5499L185.427 46.8828ZM188.544 44.375L187.748 44.9808L187.752 44.9854L188.544 44.375ZM199.044 44.3516L199.842 44.9539L199.845 44.9504L199.044 44.3516ZM198.997 30.3359L198.199 30.9394L198.206 30.9474L198.997 30.3359ZM183.239 37.0859C183.239 34.7344 183.697 32.653 184.591 30.8215L182.794 29.9441C181.75 32.0813 181.239 34.4687 181.239 37.0859H183.239ZM184.588 30.8272C185.497 28.9947 186.735 27.61 188.298 26.6383L187.242 24.9398C185.337 26.1243 183.856 27.8021 182.796 29.9384L184.588 30.8272ZM188.295 26.6405C189.873 25.6679 191.681 25.1719 193.747 25.1719V23.1719C191.344 23.1719 189.167 23.754 187.246 24.9377L188.295 26.6405ZM193.747 25.1719C196.94 25.1719 199.448 26.2635 201.367 28.4222L202.861 27.0934C200.53 24.4709 197.46 23.1719 193.747 23.1719V25.1719ZM201.369 28.4249C203.309 30.5914 204.325 33.5135 204.325 37.2969H206.325C206.325 33.1427 205.2 29.7055 202.859 27.0907L201.369 28.4249ZM204.325 37.2969V37.6016H206.325V37.2969H204.325ZM204.325 37.6016C204.325 39.9389 203.875 42.0057 202.995 43.8221L204.795 44.6936C205.822 42.5724 206.325 40.2017 206.325 37.6016H204.325ZM202.994 43.8251C202.135 45.614 200.91 46.9892 199.314 47.978L200.367 49.6782C202.302 48.4795 203.78 46.8079 204.797 44.6905L202.994 43.8251ZM199.311 47.9801C197.736 48.9643 195.908 49.4688 193.794 49.4688V51.4688C196.242 51.4688 198.445 50.8795 200.371 49.6761L199.311 47.9801ZM193.794 49.4688C190.618 49.4688 188.108 48.3781 186.172 46.2157L184.682 47.5499C187.027 50.1688 190.095 51.4688 193.794 51.4688V49.4688ZM186.174 46.2184C184.247 44.0506 183.239 41.1422 183.239 37.3906H181.239C181.239 41.514 182.356 44.9337 184.679 47.5472L186.174 46.2184ZM183.239 37.3906V37.0859H181.239V37.3906H183.239ZM185.598 37.6016C185.598 40.5642 186.282 43.0559 187.748 44.9808L189.339 43.7692C188.211 42.2879 187.598 40.2639 187.598 37.6016H185.598ZM187.752 44.9854C189.257 46.9392 191.302 47.9297 193.794 47.9297V45.9297C191.91 45.9297 190.455 45.2171 189.336 43.7646L187.752 44.9854ZM193.794 47.9297C196.302 47.9297 198.351 46.9298 199.842 44.9539L198.245 43.7492C197.143 45.2108 195.692 45.9297 193.794 45.9297V47.9297ZM199.845 44.9504C201.316 42.9823 201.989 40.3203 201.989 37.0859H199.989C199.989 40.0703 199.365 42.2521 198.243 43.7527L199.845 44.9504ZM201.989 37.0859C201.989 34.1461 201.286 31.6622 199.788 29.7245L198.206 30.9474C199.364 32.4471 199.989 34.4633 199.989 37.0859H201.989ZM199.794 29.7325C198.291 27.7467 196.245 26.7344 193.747 26.7344V28.7344C195.623 28.7344 197.077 29.4565 198.199 30.9394L199.794 29.7325ZM193.747 26.7344C191.294 26.7344 189.276 27.7311 187.775 29.6786L189.359 30.8995C190.483 29.4407 191.918 28.7344 193.747 28.7344V26.7344ZM187.775 29.6786C186.277 31.6225 185.598 34.3096 185.598 37.6016H187.598C187.598 34.5498 188.232 32.3619 189.359 30.8995L187.775 29.6786Z" fill="black"/>
</g>
<defs>
<filter id="filter0_b" x="34.1227" y="9" width="176.202" height="46.4688" filterUnits="userSpaceOnUse" color-interpolation-filters="sRGB">
<feFlood flood-opacity="0" result="BackgroundImageFix"/>
<feGaussianBlur in="BackgroundImage" stdDeviation="2"/>
<feComposite in2="SourceAlpha" operator="in" result="effect1_backgroundBlur"/>
<feBlend mode="normal" in="SourceGraphic" in2="effect1_backgroundBlur" result="shape"/>
</filter>
</defs>
</svg>
